ffmpeg started on 2025-05-06 at 09:27:30
Report written to "D:\Convert\FFMetrics\reports\ssim_report-6.txt"
Log level: 32
Command line:
ffmpeg -hide_banner -nostdin -i "G:\\\xc0\xed\xe8\xec\xe5\\\xce\xed\xe3\xee\xe8\xed\xe3\xe8\\!_35_\xcb\xe5\xf2\xee_2024\\JamClub\\\xc1\xe0\xf1\xed\xff\\[JAM_CLUB]_The_Fable_04_[1080p][RUS][DUB]_HEVC.mkv" -i "G:\\\xc0\xed\xe8\xec\xe5\\\xce\xed\xe3\xee\xe8\xed\xe3\xe8\\!_35_\xcb\xe5\xf2\xee_2024\\JamClub\\\xc1\xe0\xf1\xed\xff\\[JAM_CLUB]_The_Fable_04_[1080p][RUS][DUB].mp4" -lavfi "[0:v]settb=AVTB,setpts=PTS-STARTPTS,format=pix_fmts=yuv420p10,fps=24000/1001,scale=1920:1080:flags=bicubic[main];[1:v]settb=AVTB,setpts=PTS-STARTPTS,format=pix_fmts=yuv420p,fps=24000/1001,scale=1920:1080:flags=bicubic[ref];[main][ref]ssim=eof_action=endall:stats_file='D\\:/Convert/FFMetrics/logs/ssim_logfile-6.txt'" -f null -
Input #0, matroska,webm, from 'G:\Аниме\Онгоинги\!_35_Лето_2024\JamClub\Басня\[JAM_CLUB]_The_Fable_04_[1080p][RUS][DUB]_HEVC.mkv':
  Metadata:
    COMPATIBLE_BRANDS: isomiso2avc1mp41
    MAJOR_BRAND     : isom
    MINOR_VERSION   : 512
    ENCODER         : Lavf61.7.100
  Duration: 00:23:14.33, start: -0.001000, bitrate: 858 kb/s
  Stream #0:0: Video: hevc (Main 10), yuv420p10le(tv, bt709, progressive), 1920x1080 [SAR 1:1 DAR 16:9], 23.98 fps, 23.98 tbr, 1k tbn (default)
      Metadata:
        HANDLER_NAME    : VideoHandler
        VENDOR_ID       : [0][0][0][0]
        ENCODER         : Lavc61.19.100 libx265
        BPS             : 658515
        DURATION        : 00:23:14.184708333
        NUMBER_OF_FRAMES: 33427
        NUMBER_OF_BYTES : 114761469
        _STATISTICS_WRITING_APP: mkvpropedit v66.0.0 ('Josie') 64-bit
        _STATISTICS_WRITING_DATE_UTC: 2025-05-05 12:48:49
        _STATISTICS_TAGS: BPS DURATION NUMBER_OF_FRAMES NUMBER_OF_BYTES
  Stream #0:1(eng): Audio: aac (LC), 48000 Hz, stereo, fltp (default)
      Metadata:
        HANDLER_NAME    : SoundHandler
        VENDOR_ID       : [0][0][0][0]
        ENCODER         : Lavc61.19.100 aac
        BPS             : 195944
        DURATION        : 00:23:14.285000000
        NUMBER_OF_FRAMES: 65358
        NUMBER_OF_BYTES : 34150266
        _STATISTICS_WRITING_APP: mkvpropedit v66.0.0 ('Josie') 64-bit
        _STATISTICS_WRITING_DATE_UTC: 2025-05-05 12:48:49
        _STATISTICS_TAGS: BPS DURATION NUMBER_OF_FRAMES NUMBER_OF_BYTES
Input #1, mov,mp4,m4a,3gp,3g2,mj2, from 'G:\Аниме\Онгоинги\!_35_Лето_2024\JamClub\Басня\[JAM_CLUB]_The_Fable_04_[1080p][RUS][DUB].mp4':
  Metadata:
    major_brand     : isom
    minor_version   : 512
    compatible_brands: isomiso2avc1mp41
    encoder         : Lavf60.16.100
  Duration: 00:23:14.31, start: 0.000000, bitrate: 3432 kb/s
  Stream #1:0[0x1](und): Video: h264 (High) (avc1 / 0x31637661), yuv420p(progressive), 1920x1080, 3234 kb/s, 23.98 fps, 23.98 tbr, 90k tbn (default)
      Metadata:
        handler_name    : VideoHandler
        vendor_id       : [0][0][0][0]
  Stream #1:1[0x2](eng): Audio: aac (LC) (mp4a / 0x6134706D), 48000 Hz, stereo, fltp, 191 kb/s (default)
      Metadata:
        handler_name    : SoundHandler
        vendor_id       : [0][0][0][0]
Stream mapping:
  Stream #0:0 (hevc) -> settb:default
  Stream #1:0 (h264) -> settb:default
  ssim:default -> Stream #0:0 (wrapped_avframe)
  Stream #0:1 -> #0:1 (aac (native) -> pcm_s16le (native))
Output #0, null, to 'pipe:':
  Metadata:
    COMPATIBLE_BRANDS: isomiso2avc1mp41
    MAJOR_BRAND     : isom
    MINOR_VERSION   : 512
    encoder         : Lavf61.7.100
  Stream #0:0: Video: wrapped_avframe, yuv420p10le(tv, bt709, progressive), 1920x1080 [SAR 1:1 DAR 16:9], q=2-31, 200 kb/s, 23.98 fps, 23.98 tbn
      Metadata:
        encoder         : Lavc61.19.100 wrapped_avframe
  Stream #0:1(eng): Audio: pcm_s16le, 48000 Hz, stereo, s16, 1536 kb/s (default)
      Metadata:
        HANDLER_NAME    : SoundHandler
        VENDOR_ID       : [0][0][0][0]
        _STATISTICS_TAGS: BPS DURATION NUMBER_OF_FRAMES NUMBER_OF_BYTES
        BPS             : 195944
        DURATION        : 00:23:14.285000000
        NUMBER_OF_FRAMES: 65358
        NUMBER_OF_BYTES : 34150266
        _STATISTICS_WRITING_APP: mkvpropedit v66.0.0 ('Josie') 64-bit
        _STATISTICS_WRITING_DATE_UTC: 2025-05-05 12:48:49
        encoder         : Lavc61.19.100 pcm_s16le
frame=  112 fps=0.0 q=-0.0 size=N/A time=00:00:04.67 bitrate=N/A speed=8.99x    frame=  269 fps=258 q=-0.0 size=N/A time=00:00:11.21 bitrate=N/A speed=10.8x    frame=  441 fps=285 q=-0.0 size=N/A time=00:00:18.39 bitrate=N/A speed=11.9x    frame=  680 fps=328 q=-0.0 size=N/A time=00:00:28.36 bitrate=N/A speed=13.7x    frame=  904 fps=350 q=-0.0 size=N/A time=00:00:37.70 bitrate=N/A speed=14.6x    frame= 1133 fps=365 q=-0.0 size=N/A time=00:00:47.25 bitrate=N/A speed=15.2x    frame= 1343 fps=372 q=-0.0 size=N/A time=00:00:56.01 bitrate=N/A speed=15.5x    frame= 1566 fps=379 q=-0.0 size=N/A time=00:01:05.31 bitrate=N/A speed=15.8x    frame= 1769 fps=380 q=-0.0 size=N/A time=00:01:13.78 bitrate=N/A speed=15.9x    frame= 1963 fps=380 q=-0.0 size=N/A time=00:01:21.87 bitrate=N/A speed=15.9x    frame= 2162 fps=381 q=-0.0 size=N/A time=00:01:30.17 bitrate=N/A speed=15.9x    frame= 2388 fps=386 q=-0.0 size=N/A time=00:01:39.59 bitrate=N/A speed=16.1x    frame= 2629 fps=391 q=-0.0 size=N/A time=00:01:49.65 bitrate=N/A speed=16.3x    frame= 2867 fps=397 q=-0.0 size=N/A time=00:01:59.57 bitrate=N/A speed=16.5x    frame= 3100 fps=401 q=-0.0 size=N/A time=00:02:09.29 bitrate=N/A speed=16.7x    frame= 3331 fps=403 q=-0.0 size=N/A time=00:02:18.93 bitrate=N/A speed=16.8x    frame= 3577 fps=408 q=-0.0 size=N/A time=00:02:29.19 bitrate=N/A speed=  17x    frame= 3843 fps=414 q=-0.0 size=N/A time=00:02:40.28 bitrate=N/A speed=17.3x    frame= 4101 fps=418 q=-0.0 size=N/A time=00:02:51.04 bitrate=N/A speed=17.4x    frame= 4354 fps=422 q=-0.0 size=N/A time=00:03:01.59 bitrate=N/A speed=17.6x    frame= 4618 fps=427 q=-0.0 size=N/A time=00:03:12.60 bitrate=N/A speed=17.8x    frame= 4861 fps=429 q=-0.0 size=N/A time=00:03:22.74 bitrate=N/A speed=17.9x    frame= 5108 fps=431 q=-0.0 size=N/A time=00:03:33.04 bitrate=N/A speed=  18x    frame= 5381 fps=434 q=-0.0 size=N/A time=00:03:44.43 bitrate=N/A speed=18.1x    frame= 5639 fps=437 q=-0.0 size=N/A time=00:03:55.19 bitrate=N/A speed=18.2x    frame= 5884 fps=439 q=-0.0 size=N/A time=00:04:05.41 bitrate=N/A speed=18.3x    frame= 6151 fps=442 q=-0.0 size=N/A time=00:04:16.54 bitrate=N/A speed=18.4x    frame= 6426 fps=445 q=-0.0 size=N/A time=00:04:28.01 bitrate=N/A speed=18.5x    frame= 6694 fps=448 q=-0.0 size=N/A time=00:04:39.19 bitrate=N/A speed=18.7x    frame= 6968 fps=450 q=-0.0 size=N/A time=00:04:50.62 bitrate=N/A speed=18.8x    frame= 7232 fps=452 q=-0.0 size=N/A time=00:05:01.63 bitrate=N/A speed=18.9x    frame= 7510 fps=455 q=-0.0 size=N/A time=00:05:13.22 bitrate=N/A speed=  19x    frame= 7778 fps=457 q=-0.0 size=N/A time=00:05:24.40 bitrate=N/A speed=19.1x    frame= 8031 fps=458 q=-0.0 size=N/A time=00:05:34.95 bitrate=N/A speed=19.1x    frame= 8307 fps=460 q=-0.0 size=N/A time=00:05:46.47 bitrate=N/A speed=19.2x    frame= 8575 fps=462 q=-0.0 size=N/A time=00:05:57.64 bitrate=N/A speed=19.3x    frame= 8848 fps=464 q=-0.0 size=N/A time=00:06:09.03 bitrate=N/A speed=19.3x    frame= 9116 fps=465 q=-0.0 size=N/A time=00:06:20.21 bitrate=N/A speed=19.4x    frame= 9372 fps=466 q=-0.0 size=N/A time=00:06:30.89 bitrate=N/A speed=19.4x    frame= 9625 fps=467 q=-0.0 size=N/A time=00:06:41.44 bitrate=N/A speed=19.5x    frame= 9899 fps=468 q=-0.0 size=N/A time=00:06:52.87 bitrate=N/A speed=19.5x    frame=10175 fps=470 q=-0.0 size=N/A time=00:07:04.38 bitrate=N/A speed=19.6x    frame=10417 fps=470 q=-0.0 size=N/A time=00:07:14.47 bitrate=N/A speed=19.6x    frame=10670 fps=470 q=-0.0 size=N/A time=00:07:25.02 bitrate=N/A speed=19.6x    frame=10930 fps=471 q=-0.0 size=N/A time=00:07:35.87 bitrate=N/A speed=19.6x    frame=11180 fps=471 q=-0.0 size=N/A time=00:07:46.29 bitrate=N/A speed=19.7x    frame=11463 fps=473 q=-0.0 size=N/A time=00:07:58.10 bitrate=N/A speed=19.7x    frame=11750 fps=474 q=-0.0 size=N/A time=00:08:10.07 bitrate=N/A speed=19.8x    frame=12012 fps=475 q=-0.0 size=N/A time=00:08:21.00 bitrate=N/A speed=19.8x    frame=12291 fps=476 q=-0.0 size=N/A time=00:08:32.63 bitrate=N/A speed=19.9x    frame=12554 fps=477 q=-0.0 size=N/A time=00:08:43.60 bitrate=N/A speed=19.9x    frame=12838 fps=479 q=-0.0 size=N/A time=00:08:55.45 bitrate=N/A speed=  20x    frame=13082 fps=479 q=-0.0 size=N/A time=00:09:05.62 bitrate=N/A speed=  20x    frame=13345 fps=479 q=-0.0 size=N/A time=00:09:16.59 bitrate=N/A speed=  20x    frame=13616 fps=480 q=-0.0 size=N/A time=00:09:27.90 bitrate=N/A speed=  20x    frame=13886 fps=481 q=-0.0 size=N/A time=00:09:39.16 bitrate=N/A speed=20.1x    frame=14148 fps=481 q=-0.0 size=N/A time=00:09:50.08 bitrate=N/A speed=20.1x    frame=14416 fps=482 q=-0.0 size=N/A time=00:10:01.26 bitrate=N/A speed=20.1x    frame=14689 fps=483 q=-0.0 size=N/A time=00:10:12.65 bitrate=N/A speed=20.1x    frame=14953 fps=483 q=-0.0 size=N/A time=00:10:23.66 bitrate=N/A speed=20.2x    frame=15223 fps=484 q=-0.0 size=N/A time=00:10:34.92 bitrate=N/A speed=20.2x    frame=15491 fps=485 q=-0.0 size=N/A time=00:10:46.10 bitrate=N/A speed=20.2x    frame=15762 fps=485 q=-0.0 size=N/A time=00:10:57.40 bitrate=N/A speed=20.2x    frame=15990 fps=485 q=-0.0 size=N/A time=00:11:06.91 bitrate=N/A speed=20.2x    frame=16226 fps=484 q=-0.0 size=N/A time=00:11:16.75 bitrate=N/A speed=20.2x    frame=16460 fps=484 q=-0.0 size=N/A time=00:11:26.51 bitrate=N/A speed=20.2x    frame=16717 fps=484 q=-0.0 size=N/A time=00:11:37.23 bitrate=N/A speed=20.2x    frame=16959 fps=484 q=-0.0 size=N/A time=00:11:47.33 bitrate=N/A speed=20.2x    frame=17205 fps=483 q=-0.0 size=N/A time=00:11:57.59 bitrate=N/A speed=20.2x    frame=17439 fps=483 q=-0.0 size=N/A time=00:12:07.35 bitrate=N/A speed=20.1x    frame=17695 fps=483 q=-0.0 size=N/A time=00:12:18.02 bitrate=N/A speed=20.2x    frame=17946 fps=483 q=-0.0 size=N/A time=00:12:28.49 bitrate=N/A speed=20.2x    frame=18183 fps=483 q=-0.0 size=N/A time=00:12:38.38 bitrate=N/A speed=20.1x    frame=18431 fps=483 q=-0.0 size=N/A time=00:12:48.72 bitrate=N/A speed=20.1x    frame=18680 fps=483 q=-0.0 size=N/A time=00:12:59.11 bitrate=N/A speed=20.1x    frame=18903 fps=482 q=-0.0 size=N/A time=00:13:08.41 bitrate=N/A speed=20.1x    frame=19137 fps=482 q=-0.0 size=N/A time=00:13:18.17 bitrate=N/A speed=20.1x    frame=19404 fps=482 q=-0.0 size=N/A time=00:13:29.30 bitrate=N/A speed=20.1x    frame=19658 fps=483 q=-0.0 size=N/A time=00:13:39.90 bitrate=N/A speed=20.1x    frame=19917 fps=483 q=-0.0 size=N/A time=00:13:50.70 bitrate=N/A speed=20.1x    frame=20161 fps=483 q=-0.0 size=N/A time=00:14:00.88 bitrate=N/A speed=20.1x    frame=20413 fps=483 q=-0.0 size=N/A time=00:14:11.43 bitrate=N/A speed=20.1x    frame=20667 fps=483 q=-0.0 size=N/A time=00:14:21.98 bitrate=N/A speed=20.1x    frame=20908 fps=483 q=-0.0 size=N/A time=00:14:32.03 bitrate=N/A speed=20.1x    frame=21153 fps=483 q=-0.0 size=N/A time=00:14:42.25 bitrate=N/A speed=20.1x    frame=21394 fps=482 q=-0.0 size=N/A time=00:14:52.30 bitrate=N/A speed=20.1x    frame=21626 fps=482 q=-0.0 size=N/A time=00:15:01.98 bitrate=N/A speed=20.1x    frame=21853 fps=482 q=-0.0 size=N/A time=00:15:11.45 bitrate=N/A speed=20.1x    frame=22093 fps=481 q=-0.0 size=N/A time=00:15:21.46 bitrate=N/A speed=20.1x    frame=22324 fps=481 q=-0.0 size=N/A time=00:15:31.09 bitrate=N/A speed=20.1x    frame=22577 fps=481 q=-0.0 size=N/A time=00:15:41.64 bitrate=N/A speed=20.1x    frame=22807 fps=481 q=-0.0 size=N/A time=00:15:51.24 bitrate=N/A speed=20.1x    frame=23055 fps=481 q=-0.0 size=N/A time=00:16:01.58 bitrate=N/A speed=  20x    frame=23290 fps=481 q=-0.0 size=N/A time=00:16:11.38 bitrate=N/A speed=  20x    frame=23524 fps=480 q=-0.0 size=N/A time=00:16:21.14 bitrate=N/A speed=  20x    frame=23775 fps=480 q=-0.0 size=N/A time=00:16:31.61 bitrate=N/A speed=  20x    frame=24021 fps=480 q=-0.0 size=N/A time=00:16:41.87 bitrate=N/A speed=  20x    frame=24248 fps=480 q=-0.0 size=N/A time=00:16:51.34 bitrate=N/A speed=  20x    frame=24484 fps=480 q=-0.0 size=N/A time=00:17:01.18 bitrate=N/A speed=  20x    frame=24727 fps=480 q=-0.0 size=N/A time=00:17:11.32 bitrate=N/A speed=  20x    frame=24986 fps=480 q=-0.0 size=N/A time=00:17:22.12 bitrate=N/A speed=  20x    frame=25240 fps=480 q=-0.0 size=N/A time=00:17:32.71 bitrate=N/A speed=  20x    frame=25501 fps=480 q=-0.0 size=N/A time=00:17:43.60 bitrate=N/A speed=  20x    frame=25762 fps=480 q=-0.0 size=N/A time=00:17:54.49 bitrate=N/A speed=  20x    frame=26026 fps=481 q=-0.0 size=N/A time=00:18:05.50 bitrate=N/A speed=  20x    frame=26287 fps=481 q=-0.0 size=N/A time=00:18:16.38 bitrate=N/A speed=20.1x    frame=26549 fps=481 q=-0.0 size=N/A time=00:18:27.31 bitrate=N/A speed=20.1x    frame=26792 fps=481 q=-0.0 size=N/A time=00:18:37.44 bitrate=N/A speed=20.1x    frame=27033 fps=481 q=-0.0 size=N/A time=00:18:47.50 bitrate=N/A speed=20.1x    frame=27274 fps=481 q=-0.0 size=N/A time=00:18:57.55 bitrate=N/A speed=20.1x    frame=27490 fps=480 q=-0.0 size=N/A time=00:19:06.56 bitrate=N/A speed=  20x    frame=27730 fps=480 q=-0.0 size=N/A time=00:19:16.57 bitrate=N/A speed=  20x    frame=27968 fps=480 q=-0.0 size=N/A time=00:19:26.49 bitrate=N/A speed=  20x    frame=28204 fps=480 q=-0.0 size=N/A time=00:19:36.34 bitrate=N/A speed=  20x    frame=28433 fps=479 q=-0.0 size=N/A time=00:19:45.89 bitrate=N/A speed=  20x    frame=28667 fps=479 q=-0.0 size=N/A time=00:19:55.65 bitrate=N/A speed=  20x    frame=28939 fps=480 q=-0.0 size=N/A time=00:20:06.99 bitrate=N/A speed=  20x    frame=29203 fps=480 q=-0.0 size=N/A time=00:20:18.00 bitrate=N/A speed=  20x    frame=29462 fps=480 q=-0.0 size=N/A time=00:20:28.81 bitrate=N/A speed=  20x    frame=29715 fps=480 q=-0.0 size=N/A time=00:20:39.36 bitrate=N/A speed=  20x    frame=29982 fps=480 q=-0.0 size=N/A time=00:20:50.49 bitrate=N/A speed=  20x    frame=30246 fps=481 q=-0.0 size=N/A time=00:21:01.51 bitrate=N/A speed=20.1x    frame=30506 fps=481 q=-0.0 size=N/A time=00:21:12.35 bitrate=N/A speed=20.1x    frame=30755 fps=481 q=-0.0 size=N/A time=00:21:22.73 bitrate=N/A speed=20.1x    frame=31014 fps=481 q=-0.0 size=N/A time=00:21:33.54 bitrate=N/A speed=20.1x    frame=31248 fps=481 q=-0.0 size=N/A time=00:21:43.30 bitrate=N/A speed=20.1x    frame=31427 fps=480 q=-0.0 size=N/A time=00:21:50.76 bitrate=N/A speed=  20x    frame=31588 fps=479 q=-0.0 size=N/A time=00:21:57.48 bitrate=N/A speed=  20x    frame=31751 fps=477 q=-0.0 size=N/A time=00:22:04.28 bitrate=N/A speed=19.9x    frame=31922 fps=476 q=-0.0 size=N/A time=00:22:11.41 bitrate=N/A speed=19.9x    frame=32081 fps=475 q=-0.0 size=N/A time=00:22:18.04 bitrate=N/A speed=19.8x    frame=32234 fps=473 q=-0.0 size=N/A time=00:22:24.42 bitrate=N/A speed=19.7x    frame=32388 fps=472 q=-0.0 size=N/A time=00:22:30.84 bitrate=N/A speed=19.7x    frame=32558 fps=471 q=-0.0 size=N/A time=00:22:37.93 bitrate=N/A speed=19.6x    frame=32710 fps=470 q=-0.0 size=N/A time=00:22:44.27 bitrate=N/A speed=19.6x    frame=32909 fps=469 q=-0.0 size=N/A time=00:22:52.57 bitrate=N/A speed=19.6x    frame=33125 fps=469 q=-0.0 size=N/A time=00:23:01.58 bitrate=N/A speed=19.6x    frame=33332 fps=468 q=-0.0 size=N/A time=00:23:10.22 bitrate=N/A speed=19.5x    [Parsed_ssim_10 @ 000001c7d3c87840] SSIM Y:0.992958 (21.522862) U:0.995259 (23.241701) V:0.995624 (23.589292) All:0.993786 (22.066095)
[out#0/null @ 000001c7c75f06c0] video:14363KiB audio:261432KiB subtitle:0KiB other streams:0KiB global headers:0KiB muxing overhead: unknown
frame=33427 fps=468 q=-0.0 Lsize=N/A time=00:23:14.18 bitrate=N/A speed=19.5x    
